<?xml version="1.0" standalone="no"?>
<!DOCTYPE svg PUBLIC "-//W3C//DTD SVG 20010904//EN"
 "http://www.w3.org/TR/2001/REC-SVG-20010904/DTD/svg10.dtd">
<svg version="1.0" xmlns="http://www.w3.org/2000/svg"
 width="892.000000pt" height="603.000000pt" viewBox="0 0 892.000000 603.000000"
 preserveAspectRatio="xMidYMid meet">

<g transform="translate(0.000000,603.000000) scale(0.100000,-0.100000)"
fill="#000000" stroke="none">
<path d="M0 3015 l0 -3015 4460 0 4460 0 0 3015 0 3015 -4460 0 -4460 0 0
-3015z m5385 2380 c105 -27 253 -92 333 -147 170 -115 300 -284 367 -476 l23
-67 134 -6 c301 -14 523 -112 733 -323 518 -521 537 -1543 38 -2042 -112 -112
-293 -222 -465 -282 -138 -49 -244 -65 -379 -59 l-115 6 -13 -62 c-26 -127
-118 -282 -225 -380 -303 -277 -822 -374 -1208 -226 -99 38 -217 116 -285 186
l-53 56 -53 -42 c-87 -70 -228 -167 -297 -204 -237 -130 -502 -158 -774 -81
-171 48 -286 129 -400 281 -56 74 -139 224 -159 284 -5 14 -14 14 -94 2 -128
-21 -381 -12 -488 17 -407 110 -698 447 -928 1070 -102 277 -150 420 -144 426
3 3 74 -33 158 -81 209 -119 280 -147 394 -153 159 -8 258 39 485 229 191 159
291 231 395 284 96 48 259 95 331 95 29 0 44 4 44 13 0 44 44 294 64 370 112
408 343 649 699 732 94 22 280 36 382 29 l90 -7 60 93 c144 223 393 388 696
464 198 50 466 50 654 1z"/>
<path d="M4895 5304 c-312 -47 -586 -197 -731 -399 -99 -139 -144 -277 -144
-445 0 -197 42 -310 155 -421 234 -231 597 -277 774 -100 48 48 96 146 113
229 11 57 10 68 -12 140 -48 160 -50 196 -10 243 19 23 20 23 35 5 8 -10 28
-53 45 -94 122 -293 82 -526 -113 -655 -274 -181 -730 -114 -977 144 -128 133
-192 337 -169 539 9 77 29 172 46 216 6 15 -8 16 -158 11 -172 -5 -259 -22
-364 -68 -143 -63 -276 -184 -354 -323 -89 -156 -151 -396 -167 -638 l-7 -105
-116 -6 c-230 -10 -367 -78 -674 -335 -225 -189 -335 -250 -487 -272 -107 -15
-260 15 -382 77 -27 13 -48 19 -48 14 0 -26 110 -296 174 -426 192 -392 406
-599 707 -685 96 -28 301 -38 423 -20 82 12 87 14 82 34 -17 62 -28 169 -23
231 21 240 183 424 447 507 64 19 96 23 215 23 117 0 152 -4 210 -22 192 -61
304 -201 308 -383 2 -69 0 -75 -19 -78 -18 -3 -30 15 -82 120 -101 205 -144
235 -354 244 -150 7 -216 -4 -344 -57 -176 -73 -264 -226 -251 -434 17 -258
180 -555 377 -686 25 -16 90 -44 145 -62 97 -31 106 -32 275 -32 175 0 175 0
275 35 131 47 233 108 423 257 87 68 159 123 162 123 3 0 19 -23 35 -51 159
-268 565 -382 979 -274 333 87 587 324 613 572 5 45 3 53 -13 59 -62 19 -168
82 -213 125 -219 209 -266 613 -104 906 44 82 131 175 198 213 101 58 246 69
349 26 59 -25 91 -86 66 -126 -8 -13 -20 -12 -97 8 -209 53 -283 16 -398 -201
-206 -387 -27 -807 375 -883 207 -39 471 31 702 187 241 163 400 441 447 783
16 112 13 342 -4 462 -50 335 -214 642 -436 818 -189 150 -405 215 -664 203
l-122 -6 -13 57 c-57 262 -229 474 -476 588 -139 65 -238 85 -429 89 -93 2
-183 1 -200 -1z"/>
</g>
</svg>
